<?xml version="1.0" encoding="utf-8"?>
<!-- Generator: Adobe Illustrator 16.0.0, SVG Export Plug-In . SVG Version: 6.00 Build 0)  -->
<!DOCTYPE svg PUBLIC "-//W3C//DTD SVG 1.1//EN" "http://www.w3.org/Graphics/SVG/1.1/DTD/svg11.dtd">
<svg version="1.1" id="Layer_1" xmlns="http://www.w3.org/2000/svg" xmlns:xlink="http://www.w3.org/1999/xlink" x="0px" y="0px"
	 width="240px" height="240px" viewBox="0 0 240 240" enable-background="new 0 0 240 240" xml:space="preserve">
<g>
	<path fill="#FFFFFF" d="M120,1C54.278,1,1,54.278,1,120c0,65.721,53.278,119,119,119c65.721,0,119-53.279,119-119
		C239,54.278,185.721,1,120,1z M120,224.125c-57.507,0-104.125-46.618-104.125-104.125S62.493,15.875,120,15.875
		S224.125,62.493,224.125,120S177.507,224.125,120,224.125z"/>
	<path fill="#FFFFFF" d="M200.572,81.149c-10.583,4.563-25.911,4.563-33.205,4.563h-12.776h-15.328
		c5.477-32.114,13.869-45.434,31.206-45.434c4.742,0,9.121,0.365,14.413,2.919v0.366c-8.394,0.548-14.049,7.114-14.049,14.415
		c0,7.298,4.743,14.96,15.508,14.96c7.847,0,15.144-5.291,15.144-14.96c0-14.597-17.15-21.167-29.373-21.167
		c-31.749,0-53.646,21.35-64.046,48.901H90.731l-0.103,0.241c-5.03-2.992-12.329-4.628-21.972-4.804
		c-28.1-0.546-42.517,13.686-42.517,29.742c0,22.626,35.037,31.751,35.037,45.619c0,6.75-7.666,10.397-17.335,10.397
		c-9.67,0-17.883-3.466-21.168-6.933l0.366-0.364c1.276,0.364,2.371,0.364,3.649,0.364c6.206,0,11.132-5.475,11.132-12.043
		c0-6.569-4.926-12.044-12.41-12.044c-7.116,0-12.771,5.475-12.771,12.954c0,11.677,12.407,21.532,35.581,21.532
		c22.626,0,42.513-9.123,42.513-28.465c0-22.444-33.938-25.362-33.938-42.879c0-8.029,6.207-14.414,17.153-14.414
		c5.109,0,9.67,1.276,14.049,4.743v0.364c-0.912-0.18-1.825-0.18-3.102-0.18c-5.474,0-10.035,4.741-10.035,10.764
		c0,7.847,4.927,12.225,11.677,12.225c7.483,0,12.41-4.378,12.41-11.86c0-4.635-1.404-8.478-4.212-11.496h12.233
		c-2.737,10.034-4.922,18.978-6.564,27.917c-2.189,11.86-5.841,32.662-10.221,61.309c-3.831,24.995-8.574,31.019-16.237,31.019
		c-1.095,0-2.74-0.186-3.285-0.548c4.925-1.096,8.028-5.839,8.028-10.765c0-7.116-4.744-11.132-12.045-11.132
		c-6.02,0-11.859,5.475-10.946,12.772c1.277,9.124,7.663,13.137,16.967,13.137c9.49,0,15.875-4.378,20.62-8.939
		c30.653-29.377,38.682-76.27,45.435-114.771h25.725l-11.859,42.152c-2.737,10.032-4.562,17.879-4.562,21.893
		c0,12.955,9.67,17.152,19.521,17.152c13.87,0,24.087-8.211,30.474-20.254l-3.103-1.824c-5.107,8.392-9.669,12.223-12.587,12.223
		c-1.643,0-2.555-1.274-2.555-3.648c0-1.274,0.364-2.921,0.729-4.378L200.572,81.149z"/>
</g>
</svg>
