<?xml version="1.0" encoding="utf-8"?>
<!-- Generator: Adobe Illustrator 16.0.0, SVG Export Plug-In . SVG Version: 6.00 Build 0)  -->
<!DOCTYPE svg PUBLIC "-//W3C//DTD SVG 1.1//EN" "http://www.w3.org/Graphics/SVG/1.1/DTD/svg11.dtd">
<svg version="1.1" id="Layer_1" xmlns="http://www.w3.org/2000/svg" xmlns:xlink="http://www.w3.org/1999/xlink" x="0px" y="0px"
	 width="480px" height="85.939px" viewBox="-366.787 -106.096 480 85.939" enable-background="new -366.787 -106.096 480 85.939"
	 xml:space="preserve">
<g>
	<path fill="#FFFFFF" d="M-360.661-57.092c3.586,0,5.948,2.626,5.948,5.778c0,3.152-2.361,5.774-5.336,5.774
		c-0.611,0-1.137,0-1.75-0.17l-0.175,0.17c1.576,1.664,5.514,3.33,10.151,3.33c4.638,0,8.313-1.753,8.313-4.991
		c0-6.653-16.802-11.029-16.802-21.877c0-7.7,6.913-14.528,20.391-14.264c9.713,0.175,14.526,3.412,14.526,9.361
		c0,3.59-2.362,5.689-5.953,5.689c-3.236,0-5.599-2.099-5.599-5.864c0-2.886,2.188-5.163,4.813-5.163c0.612,0,1.051,0,1.487,0.089
		v-0.174c-2.101-1.664-4.288-2.276-6.74-2.276c-5.25,0-8.225,3.063-8.225,6.913c0,8.401,16.278,9.804,16.278,20.564
		c0,9.279-9.54,13.651-20.39,13.651c-11.114,0-17.064-4.725-17.064-10.326C-366.787-54.465-364.077-57.092-360.661-57.092z"/>
	<path fill="#FFFFFF" d="M-275.514-94.456c0,4.637-3.5,7.175-7.263,7.175c-5.162,0-7.437-3.674-7.437-7.175
		c0-3.5,2.712-6.652,6.738-6.915v-0.175c-2.539-1.225-4.639-1.399-6.916-1.399c-8.313,0-12.337,6.388-14.963,21.791h7.351h6.125
		c3.502,0,10.853,0,15.927-2.188l-9.625,34.217c-0.176,0.701-0.351,1.486-0.351,2.098c0,1.141,0.439,1.751,1.226,1.751
		c1.4,0,3.587-1.837,6.04-5.864l1.487,0.875c-3.063,5.778-7.964,9.714-14.617,9.714c-4.726,0-9.365-2.009-9.365-8.221
		c0-1.929,0.877-5.692,2.19-10.504l5.689-20.215h-12.34c-3.238,18.465-7.088,40.955-21.791,55.046
		c-2.276,2.184-5.337,4.29-9.888,4.29c-4.465,0-7.527-1.928-8.139-6.304c-0.438-3.501,2.362-6.127,5.25-6.127
		c3.5,0,5.774,1.928,5.774,5.344c0,2.363-1.487,4.633-3.85,5.159c0.262,0.179,1.05,0.263,1.575,0.263
		c3.675,0,5.951-2.889,7.789-14.88c2.099-13.736,3.85-23.71,4.899-29.4c0.79-4.288,1.839-8.577,3.151-13.39h-8.488l0.7-1.662h8.312
		c4.99-13.215,15.489-23.455,30.718-23.455C-283.738-104.609-275.514-101.458-275.514-94.456z"/>
	<path fill="#FFFFFF" d="M-226.944-50.614c-3.589,5.776-8.315,10.062-15.664,10.062c-3.94,0-8.051-2.533-8.578-6.912
		c-3.586,5.076-7.875,6.912-12.951,6.912c-9.801,0-14.439-7.7-14.439-17.323c0-12.604,10.15-25.467,23.103-25.467
		c5.339,0,9.101,2.012,10.851,7.699h0.176l7-26.077h-5.6l0.7-1.663h7.351c3.85,0,11.902-0.611,15.141-2.713l-15.753,57.234
		c-0.263,0.875-0.351,1.486-0.351,1.834c0,0.706,0.438,1.23,1.401,1.23c1.487,0,3.063-1.487,6.212-5.69L-226.944-50.614z
		 M-251.01-80.104c-2.886,0-4.374,2.452-5.775,6.825c-3.149,9.714-6.826,24.154-6.563,26.343c0,1.75,1.312,3.146,3.5,3.146
		c2.975,0,5.688-2.364,7.614-5.952c2.188-4.019,6.302-18.725,6.302-23.012C-245.933-77.568-248.823-80.104-251.01-80.104z"/>
	<path fill="#FFFFFF" d="M-194.215-80.893h16.453l-8.664,30.627c-0.437,1.403-0.613,2.19-0.613,3.238
		c0,1.23,0.788,1.751,1.577,1.751c1.225,0,2.099-0.785,6.038-5.864l1.313,0.966c-4.465,6.036-7.527,9.623-15.402,9.623
		c-4.901,0-7.964-1.835-9.189-7.087h-0.175c-2.275,4.292-6.389,7.087-11.991,7.087c-9.8,0-14.438-7.7-14.438-17.323
		c0-12.604,10.151-25.467,23.103-25.467c4.9,0,9.275,2.537,10.326,7.874h0.174L-194.215-80.893z M-207.779-73.279
		c-3.151,9.714-6.828,22.578-6.828,26.343c0,3.061,1.839,3.672,3.59,3.672c3.064,0,5.952-2.89,7.175-5.862
		c2.801-6.564,6.302-19.778,6.302-23.98c0-4.462-1.925-6.998-4.464-6.998C-204.891-80.104-206.379-77.652-207.779-73.279z"/>
	<path fill="#FFFFFF" d="M-151.77-57.092c3.587,0,5.95,2.626,5.95,5.778c0,3.152-2.362,5.774-5.338,5.774
		c-0.612,0-1.138,0-1.75-0.17l-0.174,0.17c1.575,1.664,5.514,3.33,10.152,3.33c4.636,0,8.312-1.753,8.312-4.991
		c0-6.653-16.803-11.029-16.803-21.877c0-7.7,6.914-14.528,20.392-14.264c9.713,0.175,14.525,3.412,14.525,9.361
		c0,3.59-2.363,5.689-5.95,5.689c-3.237,0-5.601-2.099-5.601-5.864c0-2.886,2.188-5.163,4.814-5.163c0.611,0,1.049,0,1.487,0.089
		v-0.174c-2.102-1.664-4.288-2.276-6.738-2.276c-5.251,0-8.227,3.063-8.227,6.913c0,8.401,16.277,9.804,16.277,20.564
		c0,9.279-9.54,13.651-20.391,13.651c-11.114,0-17.065-4.725-17.065-10.326C-157.897-54.465-155.185-57.092-151.77-57.092z"/>
	<path fill="#FFFFFF" d="M-116.939-81.154h6.035l3.416-12.253c6.298-1.75,12.688-3.937,18.374-7.35l-5.687,19.603h6.388
		l-0.524,1.662h-6.211l-7.964,28.004c-0.526,1.666-0.875,3.675-0.875,4.112c0,0.792,0.611,1.579,1.398,1.579
		c2.716,0,5.163-3.943,6.652-5.865l1.312,1.141c-1.575,1.572-5.249,9.97-15.489,9.97c-4.641,0-9.277-2.446-9.277-7.61
		c0-2.54,1.399-7.791,2.272-10.943l5.78-20.388h-6.127L-116.939-81.154z"/>
	<path fill="#FFFFFF" d="M-51.046-58.401c-2.101,7.437-2.626,9.886-2.626,10.938c0,1.402,0.791,2.187,2.191,2.187
		c1.837,0,5.075-4.286,6.036-6.212l1.4,0.787c-2.889,6.127-8.226,10.15-15.229,10.15c-5.86,0-9.271-2.795-9.271-8.136v-1.578h-0.179
		c-3.501,5.428-10.327,9.714-17.325,9.714c-5.342,0-9.192-3.495-9.192-8.839c0-0.699,0.351-3.672,0.875-5.509l6.655-24.593h-4.904
		l0.7-1.662h5.776c3.501,0,10.768,0,15.841-2.188l-7.087,24.941c-2.1,7.437-2.626,9.886-2.626,10.938
		c0,1.402,0.792,2.187,2.186,2.187c4.466,0,9.019-7.438,10.59-12.861l6.563-23.017h16.102L-51.046-58.401z"/>
	<path fill="#FFFFFF" d="M5.922-50.614C2.336-44.838-2.392-40.552-9.742-40.552c-3.936,0-8.048-2.533-8.576-6.912
		c-3.587,5.076-7.873,6.912-12.948,6.912c-9.805,0-14.439-7.7-14.439-17.323c0-12.604,10.15-25.467,23.104-25.467
		c5.338,0,9.102,2.012,10.844,7.699h0.18l7-26.077h-5.601l0.698-1.663h7.354c3.85,0,11.903-0.611,15.144-2.713L-2.741-48.862
		c-0.263,0.875-0.349,1.486-0.349,1.834c0,0.706,0.434,1.23,1.402,1.23c1.487,0,3.061-1.487,6.212-5.69L5.922-50.614z
		 M-18.139-80.104c-2.889,0-4.377,2.452-5.778,6.825c-3.148,9.714-6.825,24.154-6.562,26.343c0,1.75,1.311,3.146,3.501,3.146
		c2.975,0,5.685-2.364,7.614-5.952c2.186-4.019,6.298-18.725,6.298-23.012C-13.066-77.568-15.955-80.104-18.139-80.104z"/>
	<path fill="#FFFFFF" d="M8.549-81.154h6.126c3.501,0,10.848,0,15.927-2.188l-9.628,34.217c-0.171,0.701-0.349,1.486-0.349,2.098
		c0,1.141,0.44,1.751,1.223,1.751c1.403,0,3.587-1.837,6.038-5.864l1.493,0.875c-3.068,5.778-7.964,9.714-14.618,9.714
		c-4.726,0-9.36-2.009-9.36-8.221c0-1.929,0.875-5.692,2.187-10.504l5.685-20.215H7.852L8.549-81.154z M25.264-103.383
		c4.372,0,7.873,3.501,7.873,7.876c0,4.375-3.501,7.875-7.873,7.875c-4.375,0-7.876-3.5-7.876-7.875
		C17.388-99.882,20.889-103.383,25.264-103.383z"/>
	<path fill="#FFFFFF" d="M47.754-40.552c-11.551,0-20.132-6.384-20.132-18.901c0-9.625,7.089-23.89,26.43-23.89
		c12.077,0,20.654,6.387,20.654,18.902C74.706-55.866,68.58-40.552,47.754-40.552z M53.703-51.14l3.061-10.236
		c3.416-11.466,3.764-14.092,3.764-15.665c0-2.452-0.961-4.813-4.987-4.727c-4.548,0.088-6.91,5.514-9.885,17.328
		c-3.152,12.429-3.854,14.699-3.854,17.155c0,2.62,0.702,5.075,4.466,5.075C49.505-42.21,51.688-44.401,53.703-51.14z"/>
	<path fill="#FFFFFF" d="M77.943-57.092c3.587,0,5.948,2.626,5.948,5.778c0,3.152-2.361,5.774-5.336,5.774
		c-0.612,0-1.14,0-1.751-0.17l-0.177,0.17c1.58,1.664,5.515,3.33,10.154,3.33c4.641,0,8.313-1.753,8.313-4.991
		c0-6.653-16.801-11.029-16.801-21.877c0-7.7,6.917-14.528,20.388-14.264c9.716,0.175,14.533,3.412,14.533,9.361
		c0,3.59-2.364,5.689-5.956,5.689c-3.238,0-5.601-2.099-5.601-5.864c0-2.886,2.19-5.163,4.816-5.163c0.612,0,1.047,0,1.486,0.089
		v-0.174c-2.099-1.664-4.289-2.276-6.738-2.276c-5.252,0-8.228,3.063-8.228,6.913c0,8.401,16.277,9.804,16.277,20.564
		c0,9.279-9.536,13.651-20.389,13.651c-11.116,0-17.065-4.725-17.065-10.326C71.816-54.465,74.527-57.092,77.943-57.092z"/>
</g>
</svg>
