<?xml version="1.0" encoding="utf-8"?>
<!-- Generator: Adobe Illustrator 16.0.0, SVG Export Plug-In . SVG Version: 6.00 Build 0)  -->
<!DOCTYPE svg PUBLIC "-//W3C//DTD SVG 1.1//EN" "http://www.w3.org/Graphics/SVG/1.1/DTD/svg11.dtd">
<svg version="1.1" id="Layer_1" xmlns="http://www.w3.org/2000/svg" xmlns:xlink="http://www.w3.org/1999/xlink" x="0px" y="0px"
	 width="199.59px" height="36.135px" viewBox="0 0 199.59 36.135" enable-background="new 0 0 199.59 36.135" xml:space="preserve">
<path fill="#777777" d="M2.576,20.606c1.508,0,2.502,1.104,2.502,2.429c0,1.325-0.994,2.43-2.245,2.43c-0.257,0-0.479,0-0.736-0.073
	l-0.074,0.073c0.663,0.699,2.319,1.397,4.27,1.397s3.497-0.735,3.497-2.098c0-2.799-7.066-4.637-7.066-9.2
	c0-3.238,2.907-6.109,8.574-5.997c4.085,0.072,6.107,1.435,6.107,3.937c0,1.509-0.993,2.392-2.502,2.392
	c-1.361,0-2.354-0.883-2.354-2.465c0-1.215,0.92-2.172,2.023-2.172c0.258,0,0.441,0,0.625,0.037v-0.073
	c-0.883-0.699-1.803-0.957-2.832-0.957c-2.208,0-3.46,1.288-3.46,2.907c0,3.532,6.845,4.121,6.845,8.646
	c0,3.902-4.012,5.742-8.573,5.742C2.502,27.562,0,25.574,0,23.218C0,21.71,1.141,20.606,2.576,20.606z"/>
<path fill="#777777" d="M38.086,4.895c0,1.949-1.472,3.018-3.055,3.018c-2.171,0-3.128-1.546-3.128-3.018
	c0-1.473,1.142-2.797,2.833-2.907V1.914c-1.066-0.516-1.95-0.59-2.906-0.59c-3.496,0-5.189,2.688-6.293,9.163h3.092h2.576
	c1.472,0,4.562,0,6.696-0.919l-4.048,14.389c-0.072,0.293-0.146,0.623-0.146,0.883c0,0.479,0.184,0.734,0.516,0.734
	c0.589,0,1.509-0.771,2.539-2.466l0.625,0.367c-1.288,2.431-3.348,4.086-6.145,4.086c-1.987,0-3.938-0.848-3.938-3.459
	c0-0.811,0.368-2.393,0.919-4.416l2.393-8.5h-5.189c-1.361,7.765-2.98,17.222-9.162,23.146c-0.958,0.92-2.245,1.803-4.159,1.803
	c-1.876,0-3.165-0.809-3.422-2.649c-0.184-1.469,0.995-2.574,2.209-2.574c1.473,0,2.429,0.811,2.429,2.244
	c0,0.992-0.625,1.951-1.618,2.172c0.109,0.074,0.441,0.109,0.663,0.109c1.545,0,2.502-1.215,3.274-6.256
	c0.883-5.777,1.619-9.972,2.062-12.364c0.331-1.803,0.772-3.605,1.324-5.63h-3.568l0.294-0.699h3.496
	c2.098-5.557,6.513-9.861,12.916-9.861C34.627,0.626,38.086,1.95,38.086,4.895z"/>
<path fill="#777777" d="M59.021,23.33c-1.508,2.43-3.496,4.231-6.586,4.231c-1.656,0-3.385-1.065-3.605-2.908
	c-1.51,2.136-3.312,2.908-5.446,2.908c-4.122,0-6.071-3.237-6.071-7.287c0-5.297,4.269-10.707,9.714-10.707
	c2.245,0,3.828,0.846,4.563,3.237h0.074L54.605,1.84H52.25l0.295-0.699h3.09c1.62,0,5.005-0.258,6.366-1.141l-6.623,24.065
	c-0.111,0.367-0.147,0.625-0.147,0.771c0,0.295,0.185,0.516,0.589,0.516c0.626,0,1.288-0.625,2.613-2.393L59.021,23.33z
	 M48.902,10.93c-1.214,0-1.839,1.029-2.429,2.87c-1.325,4.084-2.87,10.157-2.76,11.075c0,0.735,0.552,1.326,1.472,1.326
	c1.251,0,2.393-0.994,3.202-2.502c0.919-1.693,2.649-7.875,2.649-9.679C51.037,11.996,49.822,10.93,48.902,10.93z"/>
<path fill="#777777" d="M73.52,10.598h6.917l-3.643,12.879c-0.185,0.588-0.257,0.92-0.257,1.361c0,0.516,0.331,0.734,0.662,0.734
	c0.515,0,0.884-0.33,2.538-2.465l0.553,0.404c-1.876,2.538-3.165,4.047-6.478,4.047c-2.06,0-3.348-0.771-3.862-2.98h-0.074
	c-0.957,1.803-2.688,2.98-5.041,2.98c-4.122,0-6.072-3.236-6.072-7.285c0-5.298,4.27-10.708,9.715-10.708
	c2.062,0,3.899,1.066,4.342,3.312h0.073L73.52,10.598z M67.816,13.8c-1.324,4.084-2.87,9.493-2.87,11.075
	c0,1.289,0.772,1.545,1.509,1.545c1.288,0,2.502-1.213,3.018-2.463c1.177-2.763,2.649-8.316,2.649-10.083
	c0-1.877-0.81-2.943-1.876-2.943C69.03,10.93,68.406,11.959,67.816,13.8z"/>
<path fill="#777777" d="M84.817,20.606c1.51,0,2.502,1.104,2.502,2.429c0,1.325-0.993,2.43-2.244,2.43c-0.259,0-0.479,0-0.736-0.073
	l-0.073,0.073c0.662,0.699,2.318,1.397,4.269,1.397c1.949,0,3.495-0.735,3.495-2.098c0-2.799-7.064-4.637-7.064-9.2
	c0-3.238,2.907-6.109,8.574-5.997c4.084,0.072,6.107,1.435,6.107,3.937c0,1.509-0.994,2.392-2.502,2.392
	c-1.36,0-2.354-0.883-2.354-2.465c0-1.215,0.92-2.172,2.023-2.172c0.257,0,0.441,0,0.625,0.037v-0.073
	c-0.883-0.699-1.803-0.957-2.833-0.957c-2.207,0-3.459,1.288-3.459,2.907c0,3.532,6.846,4.121,6.846,8.646
	c0,3.902-4.012,5.742-8.574,5.742c-4.673,0-7.175-1.987-7.175-4.344C82.242,21.71,83.383,20.606,84.817,20.606z"/>
<path fill="#777777" d="M99.647,10.487h2.541l1.436-5.151c2.648-0.736,5.335-1.656,7.727-3.092l-2.392,8.243h2.687l-0.221,0.699
	h-2.611l-3.35,11.774c-0.221,0.699-0.367,1.545-0.367,1.729c0,0.332,0.258,0.662,0.588,0.662c1.142,0,2.17-1.654,2.797-2.465
	l0.554,0.479c-0.663,0.661-2.208,4.192-6.515,4.192c-1.951,0-3.899-1.029-3.899-3.201c0-1.065,0.589-3.272,0.956-4.602l2.429-8.572
	h-2.576L99.647,10.487z"/>
<path fill="#777777" d="M128.424,20.056c-0.884,3.127-1.104,4.156-1.104,4.601c0,0.588,0.33,0.918,0.92,0.918
	c0.771,0,2.135-1.802,2.539-2.611l0.589,0.332c-1.216,2.574-3.459,4.269-6.402,4.269c-2.466,0-3.901-1.179-3.901-3.422v-0.662
	h-0.071c-1.474,2.28-4.343,4.084-7.286,4.084c-2.245,0-3.864-1.474-3.864-3.717c0-0.294,0.146-1.546,0.369-2.318l2.796-10.339
	h-2.062l0.295-0.699h2.43c1.473,0,4.523,0,6.66-0.919l-2.98,10.487c-0.884,3.127-1.104,4.157-1.104,4.6c0,0.59,0.332,0.92,0.92,0.92
	c1.876,0,3.79-3.127,4.452-5.408l2.76-9.678h6.771L128.424,20.056z"/>
<path fill="#777777" d="M152.857,23.33c-1.508,2.43-3.496,4.231-6.586,4.231c-1.655,0-3.386-1.065-3.606-2.908
	c-1.508,2.136-3.312,2.908-5.445,2.908c-4.12,0-6.071-3.237-6.071-7.287c0-5.297,4.271-10.707,9.715-10.707
	c2.244,0,3.828,0.846,4.562,3.237h0.073l2.944-10.966h-2.354l0.293-0.699h3.093c1.618,0,5.004-0.258,6.365-1.141l-6.624,24.064
	c-0.11,0.369-0.147,0.627-0.147,0.773c0,0.293,0.187,0.516,0.591,0.516c0.626,0,1.288-0.627,2.612-2.393L152.857,23.33z
	 M142.74,10.93c-1.215,0-1.842,1.029-2.432,2.87c-1.324,4.084-2.869,10.157-2.76,11.075c0,0.735,0.553,1.326,1.473,1.326
	c1.252,0,2.394-0.994,3.201-2.502c0.92-1.693,2.649-7.875,2.649-9.679C144.873,11.996,143.658,10.93,142.74,10.93z"/>
<path fill="#777777" d="M154.109,10.487h2.576c1.472,0,4.562,0,6.696-0.919l-4.048,14.389c-0.074,0.293-0.146,0.623-0.146,0.883
	c0,0.479,0.186,0.734,0.517,0.734c0.588,0,1.509-0.771,2.539-2.466l0.625,0.367c-1.288,2.431-3.349,4.086-6.146,4.086
	c-1.986,0-3.938-0.848-3.938-3.459c0-0.811,0.366-2.393,0.92-4.416l2.392-8.5h-2.281L154.109,10.487z M161.139,1.141
	c1.84,0,3.312,1.472,3.312,3.312c0,1.839-1.475,3.312-3.312,3.312c-1.84,0-3.312-1.473-3.312-3.312
	C157.826,2.612,159.299,1.141,161.139,1.141z"/>
<path fill="#777777" d="M171.846,27.562c-4.854,0-8.463-2.688-8.463-7.946c0-4.049,2.979-10.046,11.113-10.046
	c5.078,0,8.684,2.686,8.684,7.947C183.18,21.123,180.604,27.562,171.846,27.562z M174.348,23.108l1.289-4.307
	c1.437-4.819,1.582-5.923,1.582-6.586c0-1.03-0.404-2.023-2.098-1.986c-1.912,0.036-2.906,2.317-4.158,7.285
	c-1.324,5.227-1.619,6.184-1.619,7.212c0,1.104,0.295,2.135,1.877,2.135C172.582,26.862,173.502,25.942,174.348,23.108z"/>
<path fill="#777777" d="M184.76,20.606c1.508,0,2.502,1.104,2.502,2.429c0,1.325-0.994,2.43-2.244,2.43
	c-0.258,0-0.479,0-0.734-0.073l-0.073,0.073c0.662,0.699,2.315,1.397,4.269,1.397c1.951,0,3.496-0.735,3.496-2.098
	c0-2.799-7.064-4.637-7.064-9.2c0-3.238,2.906-6.109,8.572-5.997c4.084,0.072,6.108,1.435,6.108,3.937
	c0,1.509-0.993,2.392-2.502,2.392c-1.36,0-2.354-0.883-2.354-2.465c0-1.215,0.92-2.172,2.022-2.172c0.259,0,0.442,0,0.626,0.037
	v-0.073c-0.883-0.699-1.803-0.957-2.834-0.957c-2.207,0-3.458,1.288-3.458,2.907c0,3.532,6.845,4.121,6.845,8.646
	c0,3.902-4.012,5.742-8.574,5.742c-4.674,0-7.176-1.987-7.176-4.344C182.184,21.71,183.324,20.606,184.76,20.606z"/>
</svg>
