<?xml version="1.0" encoding="utf-8"?>
<!-- Generator: Adobe Illustrator 16.0.0, SVG Export Plug-In . SVG Version: 6.00 Build 0)  -->
<!DOCTYPE svg PUBLIC "-//W3C//DTD SVG 1.1//EN" "http://www.w3.org/Graphics/SVG/1.1/DTD/svg11.dtd">
<svg version="1.1" id="Layer_1" xmlns="http://www.w3.org/2000/svg" xmlns:xlink="http://www.w3.org/1999/xlink" x="0px" y="0px"
	 width="250px" height="114.638px" viewBox="0 0 250 114.638" enable-background="new 0 0 250 114.638" xml:space="preserve">
<g>
	<g>
		<path fill="#FFFFFF" d="M100.661,105.324c0.044,2.82,2.688,3.548,5.067,3.548c2.49,0,4.251-0.948,4.251-2.667
			c0-1.431-1.124-2.025-2.93-2.333l-3.569-0.597c-1.873-0.308-4.67-1.056-4.67-4.12c0-2.863,2.269-4.779,6.3-4.779
			c3.15,0,6.477,1.146,6.697,4.934h-2.335c-0.198-1.233-0.904-2.909-4.67-2.909c-1.719,0-3.657,0.729-3.657,2.579
			c0,0.97,0.639,1.742,2.577,2.072l3.856,0.658c1.233,0.222,4.736,0.816,4.736,4.032c0,4.011-3.59,5.155-6.763,5.155
			c-3.546,0-7.226-1.233-7.226-5.573H100.661z"/>
		<path fill="#FFFFFF" d="M120.841,96.798h-5.948v-2.025h14.231v2.025h-5.948v13.7h-2.335V96.798z"/>
		<path fill="#FFFFFF" d="M133.001,94.773h2.335v10.066c0,2.842,1.894,4.032,4.781,4.032c2.884,0,4.778-1.19,4.778-4.032V94.773
			h2.337v9.78c0,4.208-2.337,6.344-7.115,6.344c-4.781,0-7.116-2.136-7.116-6.344V94.773z"/>
		<path fill="#FFFFFF" d="M152.784,94.773h7.975c4.714,0,6.874,3.083,6.874,7.644c0,4.384-1.917,8.082-6.742,8.082h-8.106V94.773z
			 M160.781,108.475c3.833,0,4.517-3.217,4.517-6.016c0-2.774-0.904-5.661-4.957-5.661h-5.222v11.677H160.781z"/>
		<path fill="#FFFFFF" d="M172.721,94.773h2.335v15.726h-2.335V94.773z"/>
		<path fill="#FFFFFF" d="M188.736,94.375c6.323,0,8.746,4.229,8.746,8.261c0,4.03-2.423,8.261-8.746,8.261
			c-6.32,0-8.746-4.23-8.746-8.261C179.99,98.605,182.416,94.375,188.736,94.375z M188.736,96.4c-3.591,0-6.41,2.073-6.41,6.236
			c0,4.164,2.819,6.235,6.41,6.235c3.592,0,6.411-2.071,6.411-6.235C195.147,98.473,192.328,96.4,188.736,96.4z"/>
		<path fill="#FFFFFF" d="M203.212,105.324c0.044,2.82,2.688,3.548,5.066,3.548c2.489,0,4.253-0.948,4.253-2.667
			c0-1.431-1.123-2.025-2.931-2.333l-3.57-0.597c-1.872-0.308-4.669-1.056-4.669-4.12c0-2.863,2.268-4.779,6.299-4.779
			c3.15,0,6.478,1.146,6.697,4.934h-2.334c-0.199-1.233-0.905-2.909-4.67-2.909c-1.72,0-3.658,0.729-3.658,2.579
			c0,0.97,0.64,1.742,2.577,2.072l3.856,0.658c1.232,0.222,4.735,0.816,4.735,4.032c0,4.011-3.59,5.155-6.764,5.155
			c-3.545,0-7.224-1.233-7.224-5.573H203.212z"/>
	</g>
	<path fill="#FFFFFF" d="M120.238,30.353c-6.771,2.918-16.576,2.918-21.245,2.918H90.82h-9.806
		c3.502-20.546,8.872-29.068,19.963-29.068c3.035,0,5.836,0.233,9.223,1.869v0.232c-5.371,0.351-8.99,4.552-8.99,9.222
		c0,4.67,3.035,9.574,9.922,9.574c5.021,0,9.69-3.386,9.69-9.574c0-9.338-10.973-13.541-18.795-13.541
		c-20.313,0-34.321,13.659-40.976,31.286h-11.09l-0.064,0.155c-3.219-1.914-7.889-2.961-14.059-3.073
		c-17.978-0.35-27.2,8.755-27.2,19.028c0,14.476,22.414,20.311,22.414,29.185c0,4.321-4.904,6.655-11.091,6.655
		c-6.186,0-11.44-2.218-13.541-4.438l0.233-0.232c0.817,0.232,1.518,0.232,2.335,0.232c3.97,0,7.122-3.501,7.122-7.702
		c0-4.205-3.152-7.707-7.939-7.707C3.619,65.375,0,68.876,0,73.663C0,81.135,7.938,87.44,22.764,87.44
		c14.475,0,27.201-5.839,27.201-18.212C49.965,54.869,28.25,53,28.25,41.794c0-5.137,3.971-9.222,10.974-9.222
		c3.27,0,6.188,0.816,8.989,3.033v0.234c-0.583-0.117-1.167-0.117-1.986-0.117c-3.501,0-6.419,3.035-6.419,6.889
		c0,5.019,3.152,7.821,7.472,7.821c4.786,0,7.938-2.802,7.938-7.588c0-2.965-0.898-5.423-2.695-7.354h7.828
		c-1.75,6.42-3.153,12.14-4.202,17.859c-1.4,7.588-3.736,20.898-6.538,39.226c-2.452,15.993-5.487,19.844-10.389,19.844
		c-0.702,0-1.751-0.114-2.102-0.348c3.151-0.701,5.137-3.737,5.137-6.888c0-4.554-3.035-7.122-7.704-7.122
		c-3.854,0-7.589,3.502-7.005,8.173c0.817,5.837,4.902,8.403,10.857,8.403c6.069,0,10.156-2.8,13.191-5.72
		C71.207,90.125,76.345,60.122,80.664,35.49h16.459l-7.588,26.967c-1.75,6.419-2.918,11.438-2.918,14.007
		c0,8.29,6.188,10.976,12.491,10.976c8.872,0,15.41-5.256,19.496-12.96l-1.985-1.167c-3.269,5.371-6.186,7.822-8.055,7.822
		c-1.05,0-1.634-0.817-1.634-2.335c0-0.818,0.233-1.869,0.468-2.802L120.238,30.353z"/>
	<path fill="#FFFFFF" d="M239.729,81.135c-1.051,0-2.104-0.701-2.104-2.335c0-1.401,0.235-2.453,0.817-4.32L250,33.622h-21.948
		l-1.983,7.238h-0.234c-1.398-7.122-7.236-10.507-13.774-10.507c-17.277,0-30.818,17.161-30.818,33.97
		c0,3.112,0.366,6.07,1.102,8.769c-4.075,5.409-6.149,7.342-8.103,7.342c-1.283,0-1.867-0.7-1.867-1.634
		c0-0.467,0.116-1.284,0.468-2.453L193.854,0c-4.32,2.802-15.062,3.619-20.194,3.619h-9.81l-0.932,2.219h7.471l-9.339,34.787h-0.235
		c-2.334-7.587-7.354-10.272-14.475-10.272c-17.277,0-30.819,17.161-30.819,33.97c0,12.843,6.186,23.117,19.261,23.117
		c6.772,0,12.49-2.453,17.277-9.223c0.701,5.838,6.188,9.223,11.438,9.223c9.039,0,15.098-4.867,19.74-11.656
		c2.767,6.981,8.447,11.656,17.265,11.656c7.472,0,12.958-3.736,15.992-9.458h0.234c1.634,7.005,5.722,9.458,12.257,9.458
		c10.509,0,14.593-4.787,20.548-12.842l-1.751-1.285C242.528,80.083,241.361,81.135,239.729,81.135z M150.66,75.18
		c-2.57,4.787-6.187,7.939-10.159,7.939c-2.916,0-4.667-1.868-4.667-4.203c-0.351-2.918,4.553-22.181,8.753-35.139
		c1.871-5.837,3.855-9.105,7.707-9.105c2.916,0,6.771,3.386,6.771,9.806C159.064,50.199,153.578,69.812,150.66,75.18z
		 M215.211,75.999c-1.634,3.969-5.486,7.822-9.573,7.822c-2.335,0-4.786-0.817-4.786-4.904c0-5.021,4.906-22.181,9.107-35.139
		c1.868-5.837,3.854-9.105,7.704-9.105c3.385,0,5.954,3.386,5.954,9.34C223.617,49.615,218.947,67.243,215.211,75.999z"/>
</g>
<g>
</g>
<g>
</g>
<g>
</g>
<g>
</g>
<g>
</g>
<g>
</g>
<g>
</g>
<g>
</g>
<g>
</g>
<g>
</g>
<g>
</g>
<g>
</g>
<g>
</g>
<g>
</g>
<g>
</g>
</svg>
